<?xml version="1.0" encoding="UTF-8"?>
<svg version="1.1" xmlns="http://www.w3.org/2000/svg" width="512" height="512">
<path d="M0 0 C1.71509919 -0.00668677 1.71509919 -0.00668677 3.46484685 -0.01350862 C4.71132269 -0.01332426 5.95779852 -0.01313989 7.24204636 -0.01294994 C8.58733181 -0.01625203 9.93261628 -0.01997832 11.2778995 -0.02409142 C14.96931009 -0.03408085 18.66070442 -0.03782329 22.3521266 -0.04048073 C26.3360497 -0.04439303 30.31996004 -0.05397089 34.30387497 -0.0626936 C43.92408725 -0.08243465 53.54430054 -0.09252244 63.16452801 -0.10142139 C67.70087383 -0.10580923 72.23721848 -0.11117485 76.77356339 -0.11641026 C91.86481738 -0.13342221 106.95607066 -0.14791383 122.04733276 -0.155159 C125.96158219 -0.15706873 129.87583162 -0.15898909 133.79008102 -0.16094494 C134.76288807 -0.16142868 135.73569512 -0.16191242 136.73798117 -0.16241082 C152.47793448 -0.17070159 168.21781157 -0.19602254 183.95773163 -0.22852562 C200.13752757 -0.26166302 216.31728487 -0.27961389 232.4971149 -0.28280324 C241.57328567 -0.28496245 250.64934537 -0.29362412 259.72548294 -0.31926441 C267.45943923 -0.3410631 275.19325747 -0.34897715 282.927241 -0.33929763 C286.86673898 -0.33477895 290.80595267 -0.33649544 294.74541092 -0.35605907 C313.42168338 -0.4437236 331.5207324 -0.3236182 348.93949509 7.32172108 C349.62866013 7.61578846 350.31782516 7.90985584 351.02787399 8.21283436 C376.79518917 19.63533639 397.2071702 41.07352143 407.72074509 67.12640858 C411.44733653 76.93752496 414.30457804 87.41194446 414.32371616 97.94472599 C414.32817401 99.08812545 414.33263185 100.23152491 414.33722478 101.40957284 C414.33694824 103.2792866 414.33694824 103.2792866 414.33666611 105.18677235 C414.33996819 106.5320578 414.34369449 107.87734227 414.34780759 109.22262549 C414.35779701 112.91403608 414.36153946 116.60543041 414.3641969 120.29685259 C414.3681092 124.28077569 414.37768706 128.26468603 414.38640976 132.24860096 C414.40615081 141.86881324 414.4162386 151.48902654 414.42513755 161.109254 C414.4295254 165.64559982 414.43489102 170.18194447 414.44012642 174.71828938 C414.45713837 189.80954337 414.47163 204.90079665 414.47887516 219.99205875 C414.4807849 223.90630818 414.48270525 227.82055761 414.4846611 231.73480701 C414.48514484 232.70761406 414.48562858 233.68042111 414.48612698 234.68270716 C414.49441776 250.42266047 414.51973871 266.16253756 414.55224178 281.90245762 C414.58537919 298.08225356 414.60333005 314.26201086 414.6065194 330.44184089 C414.60867861 339.51801166 414.61734029 348.59407136 414.64298058 357.67020893 C414.66477927 365.40416522 414.67269331 373.13798346 414.66301379 380.87196699 C414.65849511 384.81146497 414.6602116 388.75067866 414.67977524 392.69013691 C414.767434 411.36518253 414.64922016 429.46708663 407.00199509 446.88422108 C406.70647751 447.57483631 406.41095993 448.26545155 406.10648727 448.97699451 C394.69515987 474.66723211 373.57997097 494.47426606 347.87699509 505.44672108 C329.52497455 512.10601178 311.9827577 512.72314873 292.63407612 512.65711975 C288.65852396 512.64796999 284.68303875 512.66208753 280.70750046 512.67303944 C272.9434091 512.69072465 265.17947337 512.68702963 257.41537619 512.67538887 C251.09920454 512.66631514 244.78307618 512.66514748 238.46689987 512.66948414 C237.11287589 512.67040354 237.11287589 512.67040354 235.73149788 512.67134151 C233.89709265 512.67262055 232.06268742 512.67391741 230.22828221 512.67523187 C213.07092126 512.68660838 195.91364613 512.67357012 178.75629926 512.65203041 C164.06927473 512.6341621 149.38237671 512.63726704 134.69535446 512.65570545 C117.59482559 512.67716412 100.49437172 512.68551002 83.39383125 512.6732564 C81.56658428 512.67198235 79.7393373 512.67072486 77.9120903 512.66948414 C77.01330473 512.66886704 76.11451916 512.66824993 75.18849766 512.66761413 C68.88788799 512.66417619 62.58732633 512.66995582 56.28672409 512.67940235 C48.59695249 512.69067945 40.90734398 512.6874633 33.21759081 512.66627938 C29.30232945 512.65584513 25.38733892 512.65151484 21.47208023 512.66487598 C2.86027838 512.72316807 -15.20446043 512.56712379 -32.56050491 504.94672108 C-33.25112015 504.6512035 -33.94173538 504.35568592 -34.65327835 504.05121326 C-60.35721001 492.63380311 -80.84081343 471.15421125 -91.34175491 445.14203358 C-95.06834635 435.33091719 -97.92558787 424.85649769 -97.94472599 414.32371616 C-97.95141276 412.60861697 -97.95141276 412.60861697 -97.95823461 410.85886931 C-97.95805025 409.61239348 -97.95786588 408.36591764 -97.95767593 407.08166981 C-97.96097802 405.73638435 -97.96470431 404.39109988 -97.96881741 403.04581666 C-97.97880684 399.35440607 -97.98254929 395.66301175 -97.98520672 391.97158957 C-97.98911902 387.98766646 -97.99869688 384.00375612 -98.00741959 380.01984119 C-98.02716064 370.39962891 -98.03724843 360.77941562 -98.04614738 351.15918815 C-98.05053522 346.62284234 -98.05590084 342.08649768 -98.06113625 337.55015278 C-98.0781482 322.45889879 -98.09263982 307.36764551 -98.09988499 292.2763834 C-98.10179472 288.36213397 -98.10371508 284.44788455 -98.10567093 280.53363514 C-98.10615467 279.56082809 -98.10663841 278.58802104 -98.10713681 277.58573499 C-98.11542758 261.84578168 -98.14074853 246.1059046 -98.17325161 230.36598453 C-98.20638901 214.18618859 -98.22433988 198.0064313 -98.22752923 181.82660127 C-98.22968844 172.75043049 -98.23835011 163.6743708 -98.2639904 154.59823322 C-98.2857891 146.86427693 -98.29370314 139.1304587 -98.28402362 131.39647517 C-98.27950494 127.45697719 -98.28122143 123.5177635 -98.30078506 119.57830524 C-98.38844959 100.90203278 -98.26834419 82.80298377 -90.62300491 65.38422108 C-90.32893753 64.69505604 -90.03487015 64.005891 -89.73189163 63.29584217 C-78.3093896 37.52852699 -56.87120456 17.11654596 -30.81831741 6.60297108 C-21.00720103 2.87637964 -10.53278153 0.01913812 0 0 Z M-36.81050491 62.13422108 C-54.1931222 82.16613306 -55.42440147 102.712354 -55.33340359 128.13413906 C-55.32426391 131.91882214 -55.33836649 135.70343443 -55.34932327 139.48810291 C-55.367019 146.88148969 -55.36330872 154.27471315 -55.35167271 161.66810608 C-55.34260318 167.68209315 -55.34142952 173.69603477 -55.34576797 179.71002674 C-55.34638091 180.56915204 -55.34699384 181.42827734 -55.34762534 182.31343675 C-55.34890437 184.05926451 -55.35020123 185.80509227 -55.35151571 187.55092001 C-55.3628953 203.88414208 -55.34984909 220.21727404 -55.32831424 236.55048132 C-55.31044565 250.53547091 -55.3135505 264.52032764 -55.33198929 278.50531483 C-55.35344248 294.78398159 -55.3617969 311.06256958 -55.34954023 327.34124851 C-55.34826617 329.08030413 -55.34700868 330.81935977 -55.34576797 332.55841541 C-55.34515087 333.41384662 -55.34453377 334.26927783 -55.34389797 335.15063119 C-55.34045839 341.15059233 -55.34624323 347.15050309 -55.35568619 353.15045643 C-55.36695716 360.47216287 -55.36375982 367.793698 -55.34256321 375.11538506 C-55.33212082 378.84406481 -55.32781293 382.57245995 -55.34115982 386.30113697 C-55.42176476 410.89332915 -53.99281559 432.56209057 -35.81050491 451.13422108 C-15.35349635 468.88571434 2.3677338 469.13422108 30.18949509 469.13422108 C30.18949509 328.55422108 30.18949509 187.97422108 30.18949509 43.13422108 C-7.0533956 43.12377191 -7.0533956 43.12377191 -36.81050491 62.13422108 Z M73.18949509 43.13422108 C73.18949509 183.71422108 73.18949509 324.29422108 73.18949509 469.13422108 C112.62449509 469.21672108 152.05949509 469.29922108 192.68949509 469.38422108 C205.12572556 469.42063709 217.56195602 469.45705311 230.37504196 469.49457264 C241.55552071 469.50795316 241.55552071 469.50795316 252.73600388 469.51599598 C257.70287396 469.51971165 262.66957177 469.53465793 267.6363945 469.55652332 C273.98582715 469.58410206 280.3350118 469.5921595 286.68449879 469.58651018 C289.00603279 469.58769028 291.32757608 469.59553754 293.64905834 469.6110816 C316.25494497 469.75532714 336.23677692 466.63486676 353.18949509 450.13422108 C366.63668141 434.94064692 371.68636601 417.7976606 371.57044601 397.77606678 C371.57512599 396.50808152 371.57980596 395.24009626 371.58462775 393.93368721 C371.59701332 390.45777534 371.59102509 386.98211434 371.58166909 383.50620222 C371.57482717 379.74062121 371.58538507 375.97508067 371.59360886 372.20950794 C371.606894 364.84996247 371.60409186 357.49050919 371.59537093 350.13096023 C371.58857414 344.14551813 371.58768626 338.16010172 371.59094238 332.17465687 C371.59140208 331.32023386 371.59186178 330.46581086 371.59233541 329.58549625 C371.59329466 327.84932795 371.5942673 326.11315967 371.59525318 324.37699139 C371.60379179 308.12683335 371.59399701 291.87672623 371.57785209 275.62657654 C371.5644503 261.70689872 371.56677882 247.78729598 371.58060837 233.86761951 C371.59669127 217.67249759 371.60296796 201.47742021 371.59377158 185.28229141 C371.59281601 183.55278938 371.59187289 181.82328733 371.59094238 180.09378529 C371.59024814 178.81762371 371.59024814 178.81762371 371.58953988 177.51568109 C371.58695811 171.54286454 371.59130337 165.57007643 371.59838104 159.59726429 C371.60682643 152.31061369 371.60445239 145.02405994 371.58853881 137.73742032 C371.58069675 134.02524602 371.57749434 130.31323274 371.58748627 126.60105991 C371.59818587 122.56469376 371.58534368 118.52872825 371.57044601 114.49237537 C371.57713818 113.33651086 371.58383034 112.18064634 371.5907253 110.98975563 C371.46716483 93.6306454 366.85044233 79.68944891 356.18949509 66.13422108 C355.56301071 65.29504139 354.93652634 64.4558617 354.29105759 63.59125233 C343.83212085 51.36323893 327.41044819 44.28257967 311.59413338 42.90879059 C304.48288097 42.55459249 297.36762444 42.63246197 290.25004196 42.68011951 C287.83512778 42.68134708 285.42021216 42.6808071 283.00529861 42.67865849 C276.58126209 42.67776132 270.15752806 42.70082007 263.73356247 42.72910023 C257.68924203 42.75200488 251.64499244 42.75295946 245.6006279 42.75580311 C227.9635441 42.77673095 210.32651569 42.832576 192.68949509 42.88422108 C133.53699509 43.00797108 133.53699509 43.00797108 73.18949509 43.13422108 Z " fill="#B000FF" transform="translate(97.81050491333008,-0.13422107696533203)"/>
</svg>
